D:\school\WTK\thesis\model\3dpredictsim\Results\debug\Pog_s1_tmt_bCst_d00_k1000_ig24_act_TTC_GRF.mot
nRows=20
nColumns=19

name D:\school\WTK\thesis\model\3dpredictsim\Results\debug\Pog_s1_tmt_bCst_d00_k1000_ig24_act_TTC_GRF.mot
datacolumns 19
datarows 20
range 0.0000000000 0.1945470757
endheader
time 	ground_force_vx	ground_force_vy	ground_force_vz	ground_force_px	ground_force_py	ground_force_pz	1_ground_force_vx	1_ground_force_vy	1_ground_force_vz	1_ground_force_px	1_ground_force_py	1_ground_force_pz	ground_torque_x	ground_torque_y	ground_torque_z	1_ground_torque_x	1_ground_torque_y	1_ground_torque_z
        0.0000000000	      -28.9823103409	       54.0874960874	       59.2436561051	        0.1570954302	        0.0000000000	        0.1398288813	      127.7657784117	      532.4792808699	      -28.8315726314	       -0.2776661765	        0.0000000000	       -0.0824435556	        0.0000000000	        0.0000000000	        0.0000000000	        0.0000000000	        0.0000000000	        0.0000000000	
        0.0102393198	      -11.8694405521	      120.6347390688	      118.1175611910	        0.1635576142	        0.0000000000	        0.1353072525	      111.8846862848	      457.5232670136	      -39.2199820095	       -0.2677074226	        0.0000000000	       -0.0812541745	        0.0000000000	        0.0000000000	        0.0000000000	        0.0000000000	        0.0000000000	        0.0000000000	
        0.0204786395	       16.4482922801	      217.1724460337	       60.6074610801	        0.1728425175	        0.0000000000	        0.1309872423	       92.6409125725	      388.8295007617	      -54.4230020602	       -0.2533169054	        0.0000000000	       -0.0792268674	        0.0000000000	        0.0000000000	        0.0000000000	        0.0000000000	        0.0000000000	        0.0000000000	
        0.0307179593	       -4.4997443330	      362.5470947150	        5.1091059036	        0.1877072179	        0.0000000000	        0.1291388171	       84.9823834762	      352.4614561358	      -64.5765999254	       -0.2480152807	        0.0000000000	       -0.0785249963	        0.0000000000	        0.0000000000	        0.0000000000	        0.0000000000	        0.0000000000	        0.0000000000	
        0.0409572791	      -42.7370725560	      492.8430802403	      -14.6881975412	        0.2000629868	        0.0000000000	        0.1268848218	       78.9720359333	      272.7700293267	      -60.3024813019	       -0.2474413934	        0.0000000000	       -0.0788592330	        0.0000000000	        0.0000000000	        0.0000000000	        0.0000000000	        0.0000000000	        0.0000000000	
        0.0511965989	      -99.6686545785	      659.8765144102	      -22.8183931511	        0.2184646625	        0.0000000000	        0.1204172300	       44.3752100727	      134.1970834280	      -32.5530071837	       -0.2472401947	        0.0000000000	       -0.0787797436	        0.0000000000	        0.0000000000	        0.0000000000	        0.0000000000	        0.0000000000	        0.0000000000	
        0.0614359186	     -128.4093755172	      789.1515645471	      -32.6418985389	        0.2329445732	        0.0000000000	        0.1140777249	        0.3499836477	        7.2691744972	       -1.1938046084	        0.0000000000	        0.0000000000	        0.0000000000	        0.0000000000	        0.0000000000	        0.0000000000	        0.0000000000	        0.0000000000	        0.0000000000	
        0.0716752384	     -140.1204608628	      815.1280233769	      -29.6730155442	        0.2461172513	        0.0000000000	        0.1088206280	        0.0000038322	       -0.0000037050	       -0.0000015182	        0.0000000000	        0.0000000000	        0.0000000000	        0.0000000000	        0.0000000000	        0.0000000000	        0.0000000000	        0.0000000000	        0.0000000000	
        0.0819145582	     -134.1994691956	      776.6063899698	      -19.9357570342	        0.2560622610	        0.0000000000	        0.1048371929	        0.0000930273	       -0.0000739417	       -0.0000543337	        0.0000000000	        0.0000000000	        0.0000000000	        0.0000000000	        0.0000000000	        0.0000000000	        0.0000000000	        0.0000000000	        0.0000000000	
        0.0921538779	     -123.1318899406	      719.3228674612	      -10.6505476198	        0.2646122902	        0.0000000000	        0.1014959614	        0.0295133107	       -0.0185092649	       -0.0168577665	        0.0000000000	        0.0000000000	        0.0000000000	        0.0000000000	        0.0000000000	        0.0000000000	        0.0000000000	        0.0000000000	        0.0000000000	
        0.1023931977	     -115.4789802284	      685.8289942621	       -5.3411891192	        0.2720367678	        0.0000000000	        0.0987289123	        0.2356544772	       -0.1239159563	       -0.1179044479	        0.0000000000	        0.0000000000	        0.0000000000	        0.0000000000	        0.0000000000	        0.0000000000	        0.0000000000	        0.0000000000	        0.0000000000	
        0.1126325175	     -108.5493674670	      663.9638044161	       -3.8547809140	        0.2781929946	        0.0000000000	        0.0964650397	        0.1677198958	       -0.0801085939	       -0.0720908275	        0.0000000000	        0.0000000000	        0.0000000000	        0.0000000000	        0.0000000000	        0.0000000000	        0.0000000000	        0.0000000000	        0.0000000000	
        0.1228718373	      -99.9073227371	      635.2712871985	       -3.6552865619	        0.2837079772	        0.0000000000	        0.0944459647	       -0.4067741764	        0.1869361573	        0.1445570058	        0.0000000000	        0.0000000000	        0.0000000000	        0.0000000000	        0.0000000000	        0.0000000000	        0.0000000000	        0.0000000000	        0.0000000000	
        0.1331111570	      -92.0004864918	      607.6464427052	       -4.1426938667	        0.2888266959	        0.0000000000	        0.0925661032	       -0.6152256975	        0.2739493441	        0.1771637165	        0.0000000000	        0.0000000000	        0.0000000000	        0.0000000000	        0.0000000000	        0.0000000000	        0.0000000000	        0.0000000000	        0.0000000000	
        0.1433504768	      -84.8331354318	      584.1353431587	       -4.8573389103	        0.2934749155	        0.0000000000	        0.0908542537	       -0.4441010567	        0.1912397574	        0.1133053743	        0.0000000000	        0.0000000000	        0.0000000000	        0.0000000000	        0.0000000000	        0.0000000000	        0.0000000000	        0.0000000000	        0.0000000000	
        0.1535897966	      -78.2913324214	      563.6793121791	       -5.2333406351	        0.2977808724	        0.0000000000	        0.0892663294	       -0.2969210521	        0.1238382752	        0.0729292712	        0.0000000000	        0.0000000000	        0.0000000000	        0.0000000000	        0.0000000000	        0.0000000000	        0.0000000000	        0.0000000000	        0.0000000000	
        0.1638291164	      -72.3961707596	      545.7667283181	       -5.2682439620	        0.3017800572	        0.0000000000	        0.0878014022	       -0.2081411701	        0.0840990267	        0.0488776640	        0.0000000000	        0.0000000000	        0.0000000000	        0.0000000000	        0.0000000000	        0.0000000000	        0.0000000000	        0.0000000000	        0.0000000000	
        0.1740684361	      -67.1184484580	      530.4019434178	       -5.2482343570	        0.3054429865	        0.0000000000	        0.0864881210	       -0.1626442330	        0.0638961388	        0.0354090216	        0.0000000000	        0.0000000000	        0.0000000000	        0.0000000000	        0.0000000000	        0.0000000000	        0.0000000000	        0.0000000000	        0.0000000000	
        0.1843077559	      -62.3383650499	      517.4777725880	       -5.3460205067	        0.3087244805	        0.0000000000	        0.0853558682	       -0.1436155798	        0.0550953460	        0.0284734236	        0.0000000000	        0.0000000000	        0.0000000000	        0.0000000000	        0.0000000000	        0.0000000000	        0.0000000000	        0.0000000000	        0.0000000000	
        0.1945470757	      -57.8677107757	      506.8509153755	       -5.5807400391	        0.3115486798	        0.0000000000	        0.0844385240	       -0.1398838522	        0.0525703114	        0.0250800113	        0.0000000000	        0.0000000000	        0.0000000000	        0.0000000000	        0.0000000000	        0.0000000000	        0.0000000000	        0.0000000000	        0.0000000000	
